<svg version="1.1" xmlns="http://www.w3.org/2000/svg" viewBox="0 0 1185.6858475041893 930.2050955295563" width="1185.6858475041893" height="930.2050955295563">
  <!-- svg-source:excalidraw -->
  
  <defs>
    <style>
      @font-face {
        font-family: "Virgil";
        src: url("https://excalidraw.com/Virgil.woff2");
      }
      @font-face {
        font-family: "Cascadia";
        src: url("https://excalidraw.com/Cascadia.woff2");
      }
    </style>
  </defs>
  <rect x="0" y="0" width="1185.6858475041893" height="930.2050955295563" fill="#ffffff"></rect><g stroke-linecap="round" transform="translate(429.5 209) rotate(0 52 96)"><path d="M1.62 0.24 C24.38 0.47, 50.94 0.98, 105 -1.62 M-0.07 0.2 C21.63 -0.11, 44.87 -0.09, 104.54 -0.72 M103.46 -0.99 C100.85 64.29, 102.22 129.59, 105.35 190.85 M103.73 -0.81 C104.57 68.26, 104.36 135.99, 104.19 191.49 M103.4 190.11 C78.76 191.15, 59.12 192.53, -0.62 191.66 M104.45 191.57 C74.92 191.8, 44.49 191.43, 0.05 192.18 M-1.35 191.44 C-1.61 150.7, 0.01 106.35, -0.69 -0.85 M0.13 191.5 C-1.52 142.93, -0.18 93.4, 0.66 -0.91" stroke="#000000" stroke-width="1" fill="none"></path></g><g stroke-linecap="round" transform="translate(459.5 186) rotate(0 52 96)"><path d="M-1.65 0.91 C26.42 0.8, 48.43 1.51, 103.86 1.45 M0.19 -0.78 C36.35 1.1, 72.3 -0.01, 104.53 -0.9 M102.06 -1.01 C102.09 67.06, 101.34 134.91, 104.08 190.63 M103.88 -0.22 C102.63 69.8, 103.69 141.86, 104.58 192.77 M103.35 191.5 C70.21 189.32, 35.7 190.62, 1.76 192.78 M103.68 191.16 C76.48 191.4, 48.46 192.5, -0.56 192.31 M0.91 190.44 C-1.7 132.8, -1.09 75.74, 0.89 -1.02 M0.58 191.56 C0.95 140.5, 0.4 90.56, 0.92 0.65" stroke="#000000" stroke-width="1" fill="none"></path></g><g stroke-linecap="round" transform="translate(448 198) rotate(0 52 96)"><path d="M-1.23 1.16 C33.53 -0.54, 69.33 0.78, 102.61 -1.8 M-0.11 0.81 C28.09 1.41, 54.78 0.87, 103.54 0.82 M104.18 -1.12 C106.78 67.09, 103.63 131.4, 104.86 191.41 M104.11 -0.2 C104.69 66.8, 105.52 135.57, 103.44 192.12 M102.06 192.74 C63.27 194.38, 23.77 191.63, 0.72 190.51 M104.8 192.83 C65.05 192.19, 23.89 190.87, 0.63 192.14 M1.1 193.2 C1.09 138.8, 3.13 82.73, 1.21 0.05 M0.69 192.12 C-0.78 139.31, -0.4 87.1, 0.16 0.34" stroke="#000000" stroke-width="1" fill="none"></path></g><g stroke-linecap="round" transform="translate(173 607.0922889709473) rotate(0 49.5 95.5)"><path d="M1.2 0.88 C22.13 -0.82, 40.98 0.04, 100.68 -1.29 M-0.08 0.25 C22.61 -0.31, 44.89 0.21, 99.64 0.28 M98.95 1.1 C100.21 50.82, 98.67 101.64, 99.08 192.47 M98.87 0.21 C100.32 61.05, 99.64 121.52, 98.4 190.19 M99.26 189.27 C59.94 188.45, 24.15 191.49, 1.35 192.87 M98.94 191.46 C60.24 191.78, 23.73 191.92, 0.65 191.15 M-0.25 190.61 C-0.58 118.27, 0.21 45.35, 1.78 -0.4 M0.84 191.44 C0.49 139.5, 0.01 87.17, -0.42 0.86" stroke="#000000" stroke-width="1" fill="none"></path></g><g transform="translate(186 693.0922889709473) rotate(0 34 12.5)"><text x="0" y="18" font-family="Virgil, Segoe UI Emoji" font-size="20px" fill="#000000" text-anchor="start" style="white-space: pre;" direction="ltr"> VM #1</text></g><g stroke-linecap="round" transform="translate(327.5 608.5922889709473) rotate(0 49.5 95.5)"><path d="M-0.37 -0.93 C28.71 -1.58, 59 -1.25, 100.44 -0.19 M-0.27 -0.03 C30 -0.86, 60.43 -1.52, 99.66 0.84 M98.31 0.15 C101.61 74.36, 99.34 150.16, 98.37 191.42 M99.31 -0.84 C98.72 51.25, 98.06 99.96, 98.99 191.62 M97.75 192.92 C72.48 190.43, 48.44 190.64, -0.26 192.84 M98.86 191.6 C58.98 192.61, 20.44 190.74, -0.92 190.19 M1.05 191.09 C-0.7 132.76, -1.9 76.17, -0.46 -0.69 M-0.72 191.29 C-0.93 122.05, -1.22 51.85, 0.86 -0.49" stroke="#000000" stroke-width="1" fill="none"></path></g><g transform="translate(340.5 694.5922889709473) rotate(0 38.5 12.5)"><text x="0" y="18" font-family="Virgil, Segoe UI Emoji" font-size="20px" fill="#000000" text-anchor="start" style="white-space: pre;" direction="ltr"> VM #2</text></g><g stroke-linecap="round" transform="translate(469.5 608.5922889709473) rotate(0 49.5 95.5)"><path d="M0.09 0.86 C36.85 -0.86, 75.35 -0.98, 98.31 1.32 M0.29 -0.32 C33.85 0.11, 66.45 1.57, 98.51 0.03 M97.55 -1.73 C101.38 49.27, 100.04 94.83, 97.65 191.73 M99.24 -0.84 C98.96 59.22, 98.57 119.58, 98.93 191.52 M97.26 191.13 C61.03 190.15, 24.04 192.16, -0.75 192.09 M99.58 191.3 C59.06 190.62, 20.39 190.57, -0.89 191.44 M0.25 189.02 C0.36 140.64, -0.8 94.79, -1.05 -0.77 M0.55 190.4 C-2.65 117.67, -1.09 41.73, 0.17 -0.52" stroke="#000000" stroke-width="1" fill="none"></path></g><g transform="translate(482.5 694.5922889709473) rotate(0 38 12.5)"><text x="0" y="18" font-family="Virgil, Segoe UI Emoji" font-size="20px" fill="#000000" text-anchor="start" style="white-space: pre;" direction="ltr"> VM #3</text></g><g stroke-linecap="round" transform="translate(625.5 609.5922889709473) rotate(0 49.5 95.5)"><path d="M-0.71 -1.5 C25.46 0.42, 50.95 -0.48, 97.87 1.01 M0.05 0.57 C30.03 -0.24, 58.3 -1.29, 99.83 -0.38 M100.61 -1.09 C97.86 47.45, 98.91 94.88, 100.5 190.05 M98.41 -0.8 C100.64 76.16, 100.52 151.21, 98.95 190.47 M97.54 191.23 C60.64 189.75, 24.91 191.95, -1.56 190.95 M98.7 190.25 C79.12 189.33, 58.39 190.86, 0.69 191.19 M-0.54 192 C0.35 135.29, 0.28 82.62, 0.89 0.85 M-0.55 191.76 C2.28 120.34, 0.55 52.16, 0.13 0.82" stroke="#000000" stroke-width="1" fill="none"></path></g><g transform="translate(629.5 697.5922889709473) rotate(0 44.5 12.5)"><text x="0" y="18" font-family="Virgil, Segoe UI Emoji" font-size="20px" fill="#000000" text-anchor="start" style="white-space: pre;" direction="ltr"> VM #N-1</text></g><g stroke-linecap="round" transform="translate(773.5 608.5922889709473) rotate(0 49.5 95.5)"><path d="M1.96 -0.13 C25.36 -0.08, 52.02 -1.2, 100.61 -1.26 M-0.41 0.92 C24.38 -0.26, 49.01 0.3, 98.79 0.33 M97.03 -0.6 C99.42 56.26, 102.14 115.94, 98.89 190.91 M98.84 -0.12 C99.59 73.77, 100.08 146.98, 99.91 191.64 M98.13 192.82 C76 190.31, 54.99 191, -1.61 191.28 M99.53 191.57 C76.98 191.01, 55.91 191.48, -0.23 191.07 M1.98 189.02 C0.29 133.41, -0.07 78.23, 0.65 -2 M-0.41 190.15 C1.14 123.49, 0.44 54.84, -0.87 -0.88" stroke="#000000" stroke-width="1" fill="none"></path></g><g transform="translate(786.5 694.5922889709473) rotate(0 34 12.5)"><text x="0" y="18" font-family="Virgil, Segoe UI Emoji" font-size="20px" fill="#000000" text-anchor="start" style="white-space: pre;" direction="ltr"> VM #1</text></g><g transform="translate(588 694.0922889709473) rotate(0 8.5 12.5)"><text x="0" y="18" font-family="Virgil, Segoe UI Emoji" font-size="20px" fill="#000000" text-anchor="start" style="white-space: pre;" direction="ltr">...</text></g><g stroke-linecap="round" transform="translate(147 587.0922889709473) rotate(0 224.5 140)"><path d="M-0.27 0.48 C94.59 0.92, 190.87 2.46, 449.51 0.57 M-0.15 -0.46 C153.32 0.69, 307.06 0.48, 449.35 0.18 M449.37 1.44 C446.85 84.88, 448.79 173.27, 448.85 279.82 M449.28 0.47 C450.6 57.2, 449.82 115.53, 449.44 279.65 M448.07 280.16 C347.94 278.65, 248.51 278.89, 0.13 280.56 M448.78 279.84 C284.85 279.54, 120.35 279.76, 0.22 279.84 M-1.32 280.43 C-0.58 171.24, -0.22 62.88, 0.69 0.18 M0.22 279.71 C1.71 187.81, 1.22 95.75, -0.75 -0.58" stroke="#000000" stroke-width="1" fill="none"></path></g><g transform="translate(189 826.0922889709473) rotate(0 66.5 12.5)"><text x="0" y="18" font-family="Virgil, Segoe UI Emoji" font-size="20px" fill="#000000" text-anchor="start" style="white-space: pre;" direction="ltr">Control Plane</text></g><g stroke-linecap="round" transform="translate(604 587.0922889709473) rotate(0 154 139.5)"><path d="M0.79 -0.93 C70.27 -0.97, 142.51 -1.06, 308.43 -0.08 M-0.68 -0.05 C68.99 0.59, 138.02 1.48, 307.45 -0.3 M307.6 0.51 C310.49 93.34, 308.11 186.76, 306.67 279.8 M307.76 -0.14 C306.8 109.55, 307.59 219.81, 308.4 278.32 M307.71 278.12 C239.16 277.74, 171.66 277.79, -1.29 279.38 M307.69 278.81 C198.34 277.49, 89.88 278.16, -0.61 279.65 M1.01 278.4 C-3.07 177.94, -1.73 79.55, 0.62 0.85 M0.29 279.07 C-1.14 173.18, -1.1 66.02, -0.56 0.44" stroke="#000000" stroke-width="1" fill="none"></path></g><g transform="translate(726 825.0922889709473) rotate(0 64 12.5)"><text x="0" y="18" font-family="Virgil, Segoe UI Emoji" font-size="20px" fill="#000000" text-anchor="start" style="white-space: pre;" direction="ltr">Worker nodes</text></g><g stroke-linecap="round" transform="translate(404 220) rotate(0 52 96)"><path d="M-0.11 1.63 L104.16 1.73 L105.21 190.72 L-0.06 192.51" stroke="none" stroke-width="0" fill="#ced4da"></path><path d="M-1.64 -0.4 C38.2 0.91, 78.93 1.07, 104.07 -0.16 M0.85 -0.36 C31.92 0.57, 64.74 0.38, 103.77 0.02 M105.23 -0.75 C101.51 73.8, 104 143.96, 103.39 193.36 M103.24 -0.08 C105.03 55.52, 105.49 111.48, 104.45 191.07 M104.16 191.84 C80.48 191.8, 51.59 194.3, -1.24 192.36 M104.43 192.91 C70.52 190.72, 36.31 191.81, 0.75 192.91 M1.22 190.7 C1.24 147.67, 0.92 101.25, -0.11 1.62 M0.71 191.25 C0.19 142.76, 0.43 91.77, 0.89 0.95" stroke="#000000" stroke-width="1" fill="none"></path></g><g transform="translate(409 253.5) rotate(0 47 62.5)"><text x="47" y="18" font-family="Virgil, Segoe UI Emoji" font-size="20px" fill="#000000" text-anchor="middle" style="white-space: pre;" direction="ltr">CAPI </text><text x="47" y="43" font-family="Virgil, Segoe UI Emoji" font-size="20px" fill="#000000" text-anchor="middle" style="white-space: pre;" direction="ltr">Machine </text><text x="47" y="68" font-family="Virgil, Segoe UI Emoji" font-size="20px" fill="#000000" text-anchor="middle" style="white-space: pre;" direction="ltr">with</text><text x="47" y="93" font-family="Virgil, Segoe UI Emoji" font-size="20px" fill="#000000" text-anchor="middle" style="white-space: pre;" direction="ltr">MicroK8s</text><text x="47" y="118" font-family="Virgil, Segoe UI Emoji" font-size="20px" fill="#000000" text-anchor="middle" style="white-space: pre;" direction="ltr">Config</text></g><g stroke-linecap="round" transform="translate(10 128) rotate(0 128.5 68)"><path d="M-1.01 -0.06 C96 -0.34, 193.65 1.64, 257.69 -0.97 M-0.59 0.53 C79.7 -0.42, 159.01 -1.03, 256.97 0.76 M256.63 1.55 C254.81 33.94, 256.78 70.09, 257.97 137.03 M257.65 0.53 C257.37 30.3, 257.6 60.75, 256.39 136.54 M256.93 136.77 C196.03 135.09, 134.96 135.1, -0.22 136.37 M257.75 136.61 C175.41 136.52, 92.89 136.07, 0.09 135.8 M-1.98 136.64 C0.29 87.21, -2.02 35.56, -0.59 0.13 M-0.37 135.94 C-0.01 95.1, 0.85 54.64, -0.79 -0.87" stroke="#000000" stroke-width="1" fill="none"></path></g><g transform="translate(81 159) rotate(0 51 37.5)"><text x="51" y="18" font-family="Virgil, Segoe UI Emoji" font-size="20px" fill="#000000" text-anchor="middle" style="white-space: pre;" direction="ltr">MicroK8s</text><text x="51" y="43" font-family="Virgil, Segoe UI Emoji" font-size="20px" fill="#000000" text-anchor="middle" style="white-space: pre;" direction="ltr">Bootstrap</text><text x="51" y="68" font-family="Virgil, Segoe UI Emoji" font-size="20px" fill="#000000" text-anchor="middle" style="white-space: pre;" direction="ltr">Provider</text></g><g stroke-linecap="round"><g transform="translate(267 189) rotate(0 73.99597872234881 64.33369624120184)"><path d="M-0.66 -0.12 C24.19 21.41, 123.62 108.49, 148.66 129.9 M1.19 -1.23 C25.89 19.92, 122.88 106.49, 147.53 128.25" stroke="#000000" stroke-width="1" fill="none"></path></g><g transform="translate(267 189) rotate(0 73.99597872234881 64.33369624120184)"><path d="M119.43 116.64 C128.53 121.19, 133.27 124.39, 149.26 127.93 M120.35 116.98 C126.01 118.7, 130.57 121.61, 148.29 127.71" stroke="#000000" stroke-width="1" fill="none"></path></g><g transform="translate(267 189) rotate(0 73.99597872234881 64.33369624120184)"><path d="M133.05 101.29 C138.66 109.81, 139.81 117.04, 149.26 127.93 M133.97 101.64 C136.83 106.52, 138.64 112.52, 148.29 127.71" stroke="#000000" stroke-width="1" fill="none"></path></g></g><g transform="translate(280 215) rotate(43.21008939175394 51 25)"><text x="51" y="18" font-family="Virgil, Segoe UI Emoji" font-size="20px" fill="#000000" text-anchor="middle" style="white-space: pre;" direction="ltr">Bootstrap</text><text x="51" y="43" font-family="Virgil, Segoe UI Emoji" font-size="20px" fill="#000000" text-anchor="middle" style="white-space: pre;" direction="ltr"> secret</text></g><g stroke-linecap="round" transform="translate(326 460) rotate(0 181.5 45.5)"><path d="M-0.75 -0.91 C93.53 -1.87, 186.19 -1.84, 361.81 -0.52 M-0.44 -0.5 C106.51 0.34, 213.64 0.77, 362.37 -0.06 M361.35 -1.38 C363.66 34.1, 362.93 66.8, 361.56 91.9 M362.08 -0.66 C363.13 20.69, 362.26 43.4, 363.18 91.41 M362.67 91.95 C251.44 91.31, 142.53 92.39, 0.26 90.4 M363.47 91.51 C270.88 89.89, 180.18 89.14, 0.23 90.59 M0.44 91.98 C1.37 66.1, 1.37 43.75, -0.85 -1.76 M-0.68 91.93 C0.21 67.87, 0.63 45.18, -0.77 -0.45" stroke="#000000" stroke-width="1" fill="none"></path></g><g transform="translate(331 493) rotate(0 176.5 12.5)"><text x="176.5" y="18" font-family="Virgil, Segoe UI Emoji" font-size="20px" fill="#000000" text-anchor="middle" style="white-space: pre;" direction="ltr">Infrastructure Provider</text></g><g stroke-linecap="round"><g transform="translate(481.5348018749885 423) rotate(0 0.6852803879227736 11.93784658100455)"><path d="M0.48 0.16 C1 3.89, 1.96 19.36, 2.1 23.43 M-0.73 -0.8 C-0.23 3.59, 1.2 20.77, 1.37 24.67" stroke="#000000" stroke-width="1" fill="none"></path></g><g transform="translate(481.5348018749885 423) rotate(0 0.6852803879227736 11.93784658100455)"><path d="M-3.34 14.09 C-2.94 15.6, -0.72 18.16, 0.2 24.4 M-3.59 13.32 C-1.85 16.95, -0.04 21.78, 1.46 24.43" stroke="#000000" stroke-width="1" fill="none"></path></g><g transform="translate(481.5348018749885 423) rotate(0 0.6852803879227736 11.93784658100455)"><path d="M4.87 13.53 C3.53 15.19, 4 17.87, 0.2 24.4 M4.62 12.76 C3.49 16.55, 2.44 21.58, 1.46 24.43" stroke="#000000" stroke-width="1" fill="none"></path></g></g><g stroke-linecap="round"><g transform="translate(460.3405210323599 554) rotate(0 -95.66088305268278 51.797821600604834)"><path d="M-0.31 0.21 C-32.24 17.53, -160 87.16, -191.84 104.32 M1.73 -0.72 C-30.38 16.18, -160.74 84.91, -193.05 102.36" stroke="#000000" stroke-width="1" fill="none"></path></g><g transform="translate(460.3405210323599 554) rotate(0 -95.66088305268278 51.797821600604834)"><path d="M-172.63 79.22 C-177.95 86.16, -185.51 90.87, -194.98 104.15 M-172.72 80.19 C-180.35 88.8, -186.3 94.82, -193.05 103.23" stroke="#000000" stroke-width="1" fill="none"></path></g><g transform="translate(460.3405210323599 554) rotate(0 -95.66088305268278 51.797821600604834)"><path d="M-162.99 97.33 C-171.05 99.22, -181.29 98.89, -194.98 104.15 M-163.07 98.31 C-174.12 100.65, -183.44 100.35, -193.05 103.23" stroke="#000000" stroke-width="1" fill="none"></path></g></g><g stroke-linecap="round"><g transform="translate(479.01491845733335 553) rotate(0 -24.995665216831583 59.715943999999126)"><path d="M-0.5 0.78 C-9.08 20.59, -43.02 98.32, -51.44 118.07 M1.44 0.15 C-6.76 20.17, -40.21 99.76, -49.1 119.28" stroke="#000000" stroke-width="1" fill="none"></path></g><g transform="translate(479.01491845733335 553) rotate(0 -24.995665216831583 59.715943999999126)"><path d="M-45.96 88.15 C-49.05 98.09, -47.57 108.62, -49.74 119.78 M-46.43 89.78 C-48.72 98.67, -48.44 108.98, -48.36 118.97" stroke="#000000" stroke-width="1" fill="none"></path></g><g transform="translate(479.01491845733335 553) rotate(0 -24.995665216831583 59.715943999999126)"><path d="M-27.14 96.34 C-35.96 103.68, -40.27 111.69, -49.74 119.78 M-27.61 97.96 C-35.87 104.13, -41.56 111.83, -48.36 118.97" stroke="#000000" stroke-width="1" fill="none"></path></g></g><g stroke-linecap="round"><g transform="translate(488.3212423220747 557) rotate(0 7.222833327739352 27.463424438768982)"><path d="M-1.08 0.21 C1.39 9.38, 12.89 46.69, 15.53 55.66 M0.55 -0.73 C2.89 8.06, 12.81 44.7, 15.06 53.97" stroke="#000000" stroke-width="1" fill="none"></path></g><g transform="translate(488.3212423220747 557) rotate(0 7.222833327739352 27.463424438768982)"><path d="M-0.66 32.13 C6.23 39.32, 9.22 48.78, 14.54 55.71 M-0.04 31.02 C4.55 38.33, 10.54 47.85, 14.95 52.98" stroke="#000000" stroke-width="1" fill="none"></path></g><g transform="translate(488.3212423220747 557) rotate(0 7.222833327739352 27.463424438768982)"><path d="M18.13 27.27 C18.33 36.03, 14.61 47.22, 14.54 55.71 M18.75 26.16 C16.51 35.13, 15.63 46.43, 14.95 52.98" stroke="#000000" stroke-width="1" fill="none"></path></g></g><g stroke-linecap="round"><g transform="translate(513.5425469154177 554) rotate(0 55.432203087804794 29.954990117680325)"><path d="M0.16 -0.89 C18.43 8.85, 91.51 49.39, 109.83 59.37 M-1.21 1.26 C17.41 11.1, 93.71 51.01, 112.08 60.8" stroke="#000000" stroke-width="1" fill="none"></path></g><g transform="translate(513.5425469154177 554) rotate(0 55.432203087804794 29.954990117680325)"><path d="M80.87 55.25 C91.53 56.94, 100.34 58.19, 111.96 61.82 M83.25 56.95 C90.88 57.79, 100.61 59.56, 112.77 61.71" stroke="#000000" stroke-width="1" fill="none"></path></g><g transform="translate(513.5425469154177 554) rotate(0 55.432203087804794 29.954990117680325)"><path d="M90.44 37.1 C98.19 44.59, 103.95 51.63, 111.96 61.82 M92.82 38.8 C97.4 45.24, 104.17 52.63, 112.77 61.71" stroke="#000000" stroke-width="1" fill="none"></path></g></g><g stroke-linecap="round"><g transform="translate(554.2955165872968 554) rotate(0 108.39911151123874 38.773146690768044)"><path d="M-0.22 0.83 C36.11 13.68, 182.27 64.66, 218.59 77.33 M-1.79 0.22 C34.4 12.67, 181.65 62.39, 218.1 75.35" stroke="#000000" stroke-width="1" fill="none"></path></g><g transform="translate(554.2955165872968 554) rotate(0 108.39911151123874 38.773146690768044)"><path d="M189.49 77.32 C199.16 75.69, 208.87 74.61, 219.12 76.33 M187.48 76.74 C198.4 76.6, 207.93 75.39, 217.2 74.72" stroke="#000000" stroke-width="1" fill="none"></path></g><g transform="translate(554.2955165872968 554) rotate(0 108.39911151123874 38.773146690768044)"><path d="M196.19 57.92 C203.54 63.13, 210.88 68.89, 219.12 76.33 M194.18 57.34 C202.92 63.49, 210.26 68.62, 217.2 74.72" stroke="#000000" stroke-width="1" fill="none"></path></g></g><g stroke-linecap="round"><g transform="translate(85 262) rotate(348.48361132674563 30.75770623423159 183.03763259314002)"><path d="M-0.54 0.45 C9.86 61.43, 51.69 304.97, 62.06 365.63" stroke="#000000" stroke-width="1.5" fill="none" stroke-dasharray="1.5 7"></path></g><g transform="translate(85 262) rotate(348.48361132674563 30.75770623423159 183.03763259314002)"><path d="M47.93 341.34 C52.16 347.75, 54.1 352.58, 62.99 364.62" stroke="#000000" stroke-width="1.5" fill="none" stroke-dasharray="1.5 5"></path></g><g transform="translate(85 262) rotate(348.48361132674563 30.75770623423159 183.03763259314002)"><path d="M68.15 337.87 C66.95 345.12, 63.46 350.88, 62.99 364.62" stroke="#000000" stroke-width="1.5" fill="none" stroke-dasharray="1.5 5"></path></g></g><g stroke-linecap="round"><g transform="translate(139 272) rotate(0 88.09398280121388 172.44379739426077)"><path d="M0.47 -0.35 C29.62 57.12, 146.3 287.62, 175.72 345.24" stroke="#000000" stroke-width="1.5" fill="none" stroke-dasharray="1.5 7"></path></g><g transform="translate(139 272) rotate(0 88.09398280121388 172.44379739426077)"><path d="M153.22 324.29 C160.66 333.8, 168.93 338.36, 177.32 346.98" stroke="#000000" stroke-width="1.5" fill="none" stroke-dasharray="1.5 5"></path></g><g transform="translate(139 272) rotate(0 88.09398280121388 172.44379739426077)"><path d="M171.51 314.99 C172.27 327.99, 173.83 335.96, 177.32 346.98" stroke="#000000" stroke-width="1.5" fill="none" stroke-dasharray="1.5 5"></path></g></g><g transform="translate(62 390) rotate(357.8183585964485 97 37.5)"><text x="97" y="18" font-family="Virgil, Segoe UI Emoji" font-size="20px" fill="#000000" text-anchor="middle" style="white-space: pre;" direction="ltr">Deliver cloudinit for</text><text x="97" y="43" font-family="Virgil, Segoe UI Emoji" font-size="20px" fill="#000000" text-anchor="middle" style="white-space: pre;" direction="ltr">nodes</text><text x="97" y="68" font-family="Virgil, Segoe UI Emoji" font-size="20px" fill="#000000" text-anchor="middle" style="white-space: pre;" direction="ltr"></text></g><g stroke-linecap="round" transform="translate(613 160) rotate(0 52 44.5)"><path d="M-0.32 1.38 L103.55 -1.54 L103.95 87.16 L1.42 88.27" stroke="none" stroke-width="0" fill="#ced4da"></path><path d="M-1 -1.97 C23.35 -0.65, 44.25 1.45, 105 1.37 M-0.08 -0.31 C30.87 0.59, 63.34 -0.03, 104.8 -0.66 M104.13 -1.17 C102.66 32.63, 104.14 65.86, 104.18 87.76 M103.88 0.31 C104.29 20.36, 105.25 39.3, 104.74 89.78 M103.36 89.55 C72.89 90.39, 43.23 87.47, -1.97 88.69 M103.21 89.02 C72.15 90.02, 39.59 89.6, 0.43 89.26 M-1.68 90.38 C1.84 64.33, -0.94 38.55, -1.12 -0.3 M-0.11 88.31 C0.72 59.02, -0.12 30.12, -0.24 0.55" stroke="#000000" stroke-width="1" fill="none"></path></g><g transform="translate(618 192) rotate(0 47 12.5)"><text x="47" y="18" font-family="Virgil, Segoe UI Emoji" font-size="20px" fill="#000000" text-anchor="middle" style="white-space: pre;" direction="ltr">CA</text></g><g stroke-linecap="round" transform="translate(609 266.5) rotate(0 52 44.5)"><path d="M1.96 -0.75 L103.39 -0.93 L103.35 88.58 L-0.48 87.15" stroke="none" stroke-width="0" fill="#ced4da"></path><path d="M1.8 -1.58 C29.61 -0.56, 59.3 -1.59, 103.33 0.86 M0.12 -0.84 C34.54 0.86, 67.67 -0.53, 103.37 -0.56 M102.5 -0.22 C102.93 25.83, 103.66 49.51, 104.89 88.52 M103.77 -0.77 C103.83 30.67, 104.57 62.81, 104.7 88.67 M105.15 90.21 C65.55 90.32, 28.87 91.06, -0.81 88.21 M104.9 89.02 C72.31 89.99, 40.55 88.28, 0.77 89.63 M1.49 88.59 C2.56 59.82, 0.06 32.02, -1.85 -0.24 M-0.19 88.53 C0.66 70.19, -0.36 52.78, -0.41 -0.69" stroke="#000000" stroke-width="1" fill="none"></path></g><g transform="translate(614 286) rotate(0 47 25)"><text x="47" y="18" font-family="Virgil, Segoe UI Emoji" font-size="20px" fill="#000000" text-anchor="middle" style="white-space: pre;" direction="ltr">Join </text><text x="47" y="43" font-family="Virgil, Segoe UI Emoji" font-size="20px" fill="#000000" text-anchor="middle" style="white-space: pre;" direction="ltr">Token</text></g><g stroke-linecap="round" transform="translate(314 116) rotate(0 212 155.5)"><path d="M-0.16 0.77 C90.57 0.8, 182.52 0.05, 423.54 0.27 M425.05 -1.41 C426.36 79.78, 424.26 158.72, 422.97 309.7 M424.07 310.61 C260.63 310.9, 99.92 309.71, -0.92 311.06 M1 312.28 C0.06 223.01, 0.9 134.52, 0.6 1.43" stroke="#000000" stroke-width="1.5" fill="none" stroke-dasharray="8 9"></path></g><g transform="translate(337.5 129) rotate(0 90.5 12.5)"><text x="90.5" y="18" font-family="Virgil, Segoe UI Emoji" font-size="20px" fill="#000000" text-anchor="middle" style="white-space: pre;" direction="ltr">Bootstrap cluster</text></g><g transform="translate(246.5 10) rotate(0 90.5 37.5)"><text x="0" y="18" font-family="Virgil, Segoe UI Emoji" font-size="20px" fill="#000000" text-anchor="start" style="white-space: pre;" direction="ltr">Generate Secrets:</text><text x="0" y="43" font-family="Virgil, Segoe UI Emoji" font-size="20px" fill="#000000" text-anchor="start" style="white-space: pre;" direction="ltr">- Join token</text><text x="0" y="68" font-family="Virgil, Segoe UI Emoji" font-size="20px" fill="#000000" text-anchor="start" style="white-space: pre;" direction="ltr">-CA</text></g><g stroke-linecap="round" transform="translate(774 124.76117062568665) rotate(0 126 63.5)"><path d="M-0.93 0.32 C50.44 1.4, 99.56 0.65, 250.9 0.29 M-0.02 0.38 C52.05 -0.73, 104.45 -1.66, 252.55 -0.49 M252.99 -0.75 C252.14 52.18, 251.83 99.26, 250.07 128.91 M252.2 -0.59 C253.48 34.39, 252.72 68.17, 251.24 126.16 M253.04 125.43 C149.61 124.68, 49.58 124.24, 0.32 128.18 M251.24 127.1 C173.14 125.25, 93.9 125.76, -0.61 126.73 M-0.09 127.29 C0.36 83.71, 2.4 41.77, -0.04 -0.64 M-0.85 127.81 C1.04 99.39, 0.83 72.94, -0.02 -0.87" stroke="#000000" stroke-width="1" fill="none"></path></g><g transform="translate(833 158.76117062568665) rotate(0 66 25)"><text x="66" y="18" font-family="Virgil, Segoe UI Emoji" font-size="20px" fill="#000000" text-anchor="middle" style="white-space: pre;" direction="ltr">Control Plane</text><text x="66" y="43" font-family="Virgil, Segoe UI Emoji" font-size="20px" fill="#000000" text-anchor="middle" style="white-space: pre;" direction="ltr">Provider </text></g><g stroke-linecap="round" transform="translate(594 368.76117062568665) rotate(0 66.5 23)"><path d="M1.18 -1.19 L132.58 -0.25 L132.19 45.25 L-1.51 46.86" stroke="none" stroke-width="0" fill="#ced4da"></path><path d="M0.52 -1.67 C40.47 -0.36, 80.34 -0.1, 133.33 -1.19 M-0.94 -0.92 C29.94 -1.77, 60.09 -1.61, 132.9 0.56 M133.77 -1.49 C131.27 7.54, 132.74 20.43, 133.9 44.14 M133.35 -1 C133.08 13.02, 132.22 25.23, 133.42 45.41 M133.84 47.31 C97.28 47.54, 62.46 44.87, 0.19 47.81 M133.09 45.49 C96.09 45.87, 58.61 46.01, 0.55 45.58 M0.78 44.82 C-0.55 30.73, 1.03 18.25, -0.75 0.32 M0.45 46.1 C-1.09 35.31, 0.71 23.39, -0.09 -0.79" stroke="#000000" stroke-width="1" fill="none"></path></g><g transform="translate(599 379.26117062568665) rotate(0 61.5 12.5)"><text x="61.5" y="18" font-family="Virgil, Segoe UI Emoji" font-size="20px" fill="#000000" text-anchor="middle" style="white-space: pre;" direction="ltr">kubeconfig</text></g><g stroke-linecap="round"><g transform="translate(724 173.76117062568665) rotate(0 27.532433232292533 -3.8455813415162226)"><path d="M-0.45 -0.9 C8.83 -2.31, 46.19 -7.44, 55.51 -8.93 M1.52 1.24 C10.69 0.08, 45.92 -5.66, 54.83 -7.35" stroke="#000000" stroke-width="1" fill="none"></path></g><g transform="translate(724 173.76117062568665) rotate(0 27.532433232292533 -3.8455813415162226)"><path d="M29.16 7.38 C37.8 3.44, 43.27 -0.07, 53.2 -5.81 M31.1 6.74 C39.71 0.87, 48.94 -2.65, 54.12 -8.26" stroke="#000000" stroke-width="1" fill="none"></path></g><g transform="translate(724 173.76117062568665) rotate(0 27.532433232292533 -3.8455813415162226)"><path d="M25.9 -11.4 C35.4 -9.92, 41.8 -8.03, 53.2 -5.81 M27.84 -12.04 C37.53 -11.15, 47.94 -7.92, 54.12 -8.26" stroke="#000000" stroke-width="1" fill="none"></path></g></g><g stroke-linecap="round" transform="translate(63 560.2050955295563) rotate(0 466.5000000000001 180)"><path d="M0.3 0.58 C260.28 -1.08, 522.42 -1.27, 932.52 0.66 M0.2 0.2 C329.39 -0.02, 658.77 -0.56, 932.75 0.14 M933.46 -1.1 C932 122.82, 932.42 243.93, 932.9 360.83 M933.13 0.52 C935.73 117.12, 935.26 233.37, 933.45 360.49 M932.41 360.71 C599.55 356.95, 265.53 356.38, 0.74 360.53 M932.85 359.65 C656.5 356.77, 379.46 356.63, 0.15 359.73 M1.1 358.76 C0.02 222.02, -1.74 84.19, -0.94 0.46 M0.42 359.57 C1.06 251.61, 0.51 144.26, 0.59 -0.04" stroke="#000000" stroke-width="1" fill="none"></path></g><g transform="translate(444 888.2050955295563) rotate(0 94 12.5)"><text x="94" y="18" font-family="Virgil, Segoe UI Emoji" font-size="20px" fill="#000000" text-anchor="middle" style="white-space: pre;" direction="ltr">Provisioned Cluster</text></g><g stroke-linecap="round" transform="translate(773 484.91135716438293) rotate(0 19 15.5)"><path d="M20.64 0.88 C24.49 1.16, 29.7 2.48, 32.55 4.98 C35.4 7.47, 37.41 12.51, 37.73 15.87 C38.04 19.23, 36.79 22.77, 34.46 25.13 C32.14 27.5, 27.79 29.51, 23.79 30.06 C19.79 30.62, 14.19 29.9, 10.49 28.48 C6.79 27.07, 3.1 24.62, 1.61 21.57 C0.12 18.51, 0.31 13.32, 1.54 10.15 C2.78 6.98, 5.37 4.02, 9.03 2.56 C12.68 1.09, 20.61 1.55, 23.48 1.36 C26.35 1.17, 26.21 1.48, 26.25 1.43 M22.6 0.51 C26.1 0.58, 30.06 2.56, 32.67 4.96 C35.27 7.36, 38.3 11.45, 38.24 14.89 C38.18 18.32, 35.29 23.09, 32.32 25.57 C29.35 28.05, 24.16 29.23, 20.43 29.76 C16.7 30.28, 12.93 30.39, 9.93 28.69 C6.94 26.99, 3.7 22.7, 2.47 19.58 C1.23 16.45, 1.17 12.84, 2.52 9.95 C3.87 7.07, 7.23 3.86, 10.55 2.26 C13.88 0.66, 20.69 0.58, 22.49 0.36 C24.28 0.13, 21.31 0.62, 21.3 0.91" stroke="#000000" stroke-width="1" fill="none"></path></g><g stroke-linecap="round"><g transform="translate(792 515.9113571643829) rotate(0 -0.24968560483307556 24.806169103048745)"><path d="M-0.17 0.15 C-0.45 8.19, -1.04 41.1, -0.98 49.27 M-1.72 -0.81 C-1.69 7.89, 1.01 41.95, 1.22 50.43" stroke="#000000" stroke-width="1" fill="none"></path></g></g><g stroke-linecap="round"><g transform="translate(694 497.91135716438293) rotate(0 37.816000464092895 2.578402230311184)"><path d="M0.02 0.17 C13.06 1.13, 64.45 5.05, 77.05 5.94 M-1.42 -0.78 C11.65 -0.17, 63.98 3.61, 76.66 4.3" stroke="#000000" stroke-width="1" fill="none"></path></g><g transform="translate(694 497.91135716438293) rotate(0 37.816000464092895 2.578402230311184)"><path d="M48.16 14.48 C55.29 10.39, 60.39 7.39, 75.87 3.64 M48.39 13.48 C53.32 11.57, 60.31 8.59, 76.83 3.34" stroke="#000000" stroke-width="1" fill="none"></path></g><g transform="translate(694 497.91135716438293) rotate(0 37.816000464092895 2.578402230311184)"><path d="M49.48 -5.99 C56.38 -5.91, 61.21 -4.72, 75.87 3.64 M49.71 -7 C54.53 -4.31, 61.22 -2.68, 76.83 3.34" stroke="#000000" stroke-width="1" fill="none"></path></g></g><g transform="translate(793.5 511.4403018951416) rotate(0 54.5 12.5)"><text x="54.5" y="18" font-family="Virgil, Segoe UI Emoji" font-size="20px" fill="#000000" text-anchor="middle" style="white-space: pre;" direction="ltr">Cluster EP</text></g><g stroke-linecap="round"><g transform="translate(804 482.4403018951416) rotate(0 21.855202284781285 -113.70051132368856)"><path d="M1.02 -0.69 C8.19 -38.8, 36.29 -190.82, 43.61 -228.96 M0.1 1.56 C7.02 -36.31, 35.03 -189.06, 42.46 -227.4" stroke="#000000" stroke-width="1" fill="none"></path></g><g transform="translate(804 482.4403018951416) rotate(0 21.855202284781285 -113.70051132368856)"><path d="M46.18 -198.45 C45.77 -206.62, 43.08 -217.54, 42.07 -227.88 M48.09 -197.18 C45.82 -204.92, 44.38 -209.13, 42.71 -226.5" stroke="#000000" stroke-width="1" fill="none"></path></g><g transform="translate(804 482.4403018951416) rotate(0 21.855202284781285 -113.70051132368856)"><path d="M26.01 -202.24 C32.69 -209.24, 37.11 -218.83, 42.07 -227.88 M27.92 -200.97 C29.86 -207.86, 32.62 -211.28, 42.71 -226.5" stroke="#000000" stroke-width="1" fill="none"></path></g></g><g stroke-linecap="round"><g transform="translate(815 248.4403018951416) rotate(0 -45.9576679308899 65.50716412998734)"><path d="M-0.03 -0.88 C-15.31 20.91, -75.93 109.92, -91.3 131.9 M-1.51 1.27 C-16.92 23.24, -76.61 108.41, -91.88 130.25" stroke="#000000" stroke-width="1" fill="none"></path></g><g transform="translate(815 248.4403018951416) rotate(0 -45.9576679308899 65.50716412998734)"><path d="M-85.59 102.43 C-84.92 110.45, -89.03 119.61, -93.79 129.84 M-84.73 100.86 C-85.28 108.93, -88 115.41, -92.59 130.29" stroke="#000000" stroke-width="1" fill="none"></path></g><g transform="translate(815 248.4403018951416) rotate(0 -45.9576679308899 65.50716412998734)"><path d="M-68.78 114.2 C-73.8 118.31, -83.49 123.57, -93.79 129.84 M-67.92 112.63 C-72.66 117.99, -79.46 121.62, -92.59 130.29" stroke="#000000" stroke-width="1" fill="none"></path></g></g><g stroke-linecap="round" transform="translate(1083.834561584053 315.4403018951416) rotate(0 30.672127280845075 28.08921129930019)"><path d="M26.42 0.38 C32.46 -0.74, 41.19 1.76, 46.63 4.76 C52.07 7.76, 56.84 12.92, 59.07 18.4 C61.29 23.88, 62.1 31.81, 59.98 37.64 C57.86 43.47, 52.23 50.5, 46.34 53.38 C40.45 56.26, 31.06 56.2, 24.62 54.93 C18.18 53.65, 11.93 50.27, 7.7 45.72 C3.46 41.16, -0.76 33.68, -0.77 27.59 C-0.78 21.5, 2.69 13.91, 7.62 9.19 C12.55 4.47, 24.55 0.55, 28.79 -0.72 C33.03 -2, 33.05 1.09, 33.06 1.54 M40.36 3.06 C46.68 4.31, 55.33 8.14, 58.57 13.09 C61.81 18.04, 61.24 26.63, 59.81 32.76 C58.38 38.89, 54.7 45.95, 50 49.86 C45.3 53.78, 38.05 56.25, 31.6 56.25 C25.14 56.25, 16.38 53.73, 11.27 49.87 C6.16 46.02, 1.92 38.8, 0.93 33.11 C-0.06 27.41, 2.29 20.88, 5.32 15.69 C8.34 10.5, 13.23 4.07, 19.09 1.96 C24.94 -0.14, 37.01 3.16, 40.43 3.06 C43.86 2.95, 39.64 1.37, 39.64 1.34" stroke="#000000" stroke-width="1" fill="none"></path></g><g stroke-linecap="round"><g transform="translate(1116.6643860030335 371.73204197718337) rotate(0 3.089537900765322 41.43403873112575)"><path d="M1.15 -0.64 C1.84 12.83, 3.15 68.16, 3.64 81.98 M0.29 1.63 C1.4 15.82, 5.42 69.82, 5.89 83.51" stroke="#000000" stroke-width="1" fill="none"></path></g></g><g stroke-linecap="round"><g transform="translate(1121.6738242202985 455.58898199988255) rotate(0 -15.512267916433984 26.934545364924674)"><path d="M0.42 0.56 C-4.73 9.3, -25.13 43.97, -30.44 52.44 M-0.82 -0.19 C-6.18 8.76, -26.72 45.32, -31.44 54.05" stroke="#000000" stroke-width="1" fill="none"></path></g></g><g stroke-linecap="round"><g transform="translate(1125.3595720894841 452.03831262292863) rotate(0 24.883189873449396 30.268342254951108)"><path d="M-0.56 -0.32 C7.98 10.08, 41.71 51.72, 50.33 62.08 M1.35 -1.54 C9.78 8.56, 40.96 50.18, 49.16 60.39" stroke="#000000" stroke-width="1" fill="none"></path></g></g><g stroke-linecap="round"><g transform="translate(1083.532461908087 396.4813812372431) rotate(0 40.90524575383415 0.6101415489967223)"><path d="M-0.47 1.07 C13.16 1.42, 68.37 1.68, 82.28 1.4 M1.49 0.58 C14.91 0.67, 67.8 -0.22, 81.31 -0.3" stroke="#000000" stroke-width="1" fill="none"></path></g></g><g transform="translate(1102 515.4403018951416) rotate(0 23 12.5)"><text x="23" y="18" font-family="Virgil, Segoe UI Emoji" font-size="20px" fill="#000000" text-anchor="middle" style="white-space: pre;" direction="ltr">User</text></g><g stroke-linecap="round"><g transform="translate(719 391.4403018951416) rotate(0 186.02084431312971 7.446565261743956)"><path d="M-0.44 0.14 C61.75 2.75, 310.08 12.05, 372.48 14.81 M1.53 -0.84 C63.57 1.95, 309.22 13.14, 371.26 15.73" stroke="#000000" stroke-width="1" fill="none"></path></g><g transform="translate(719 391.4403018951416) rotate(0 186.02084431312971 7.446565261743956)"><path d="M342.87 23.87 C347.8 24.25, 358 20.74, 372.28 16.24 M343.37 24.52 C353.51 22.21, 361.88 17.89, 370.82 16.26" stroke="#000000" stroke-width="1" fill="none"></path></g><g transform="translate(719 391.4403018951416) rotate(0 186.02084431312971 7.446565261743956)"><path d="M343.77 3.37 C348.33 8.81, 358.31 10.36, 372.28 16.24 M344.27 4.02 C353.91 8.86, 361.96 11.68, 370.82 16.26" stroke="#000000" stroke-width="1" fill="none"></path></g></g><g transform="translate(847.5 373.4403018951416) rotate(0 101.5 12.5)"><text x="101.5" y="18" font-family="Virgil, Segoe UI Emoji" font-size="20px" fill="#000000" text-anchor="middle" style="white-space: pre;" direction="ltr">clusterctl get config</text></g><g stroke-linecap="round"><g transform="translate(1102 440.4403018951416) rotate(0 -142.9370955977589 28.35840058065952)"><path d="M0.68 0.75 C-47.23 10.09, -238.52 46.8, -286.56 55.97" stroke="#000000" stroke-width="1.5" fill="none" stroke-dasharray="1.5 7"></path></g></g><g transform="translate(837 460.38242197036743) rotate(0 127 12.5)"><text x="127" y="18" font-family="Virgil, Segoe UI Emoji" font-size="20px" fill="#000000" text-anchor="middle" style="white-space: pre;" direction="ltr">User talks to cluster EP</text></g><g stroke-linecap="round"><g transform="translate(225 115) rotate(0 216.3121538070124 -29.465579314110798)"><path d="M-1.12 -0.35 C51.89 -15.58, 246.44 -97.09, 318.5 -91.76 C390.56 -86.42, 412.14 11, 431.24 31.68 M0.5 -1.58 C53.34 -16.63, 245.6 -96.35, 317.81 -90.62 C390.02 -84.88, 414.99 12.13, 433.74 32.83" stroke="#000000" stroke-width="1" fill="none"></path></g><g transform="translate(225 115) rotate(0 216.3121538070124 -29.465579314110798)"><path d="M410.33 14.18 C417.35 18.92, 425.82 28.67, 434.21 32.98 M410.2 13.15 C416.5 17.99, 420.98 21.24, 433.4 32.21" stroke="#000000" stroke-width="1" fill="none"></path></g><g transform="translate(225 115) rotate(0 216.3121538070124 -29.465579314110798)"><path d="M428.19 4.07 C429.1 12.08, 431.51 25.26, 434.21 32.98 M428.05 3.03 C430.38 10.11, 430.83 15.66, 433.4 32.21" stroke="#000000" stroke-width="1" fill="none"></path></g></g><g stroke-linecap="round"><g transform="translate(230 122.5) rotate(0 188.64696862785144 48.01133587495386)"><path d="M0.9 -0.66 C46.31 -6.94, 209.06 -60.46, 271.8 -37.19 C334.55 -13.92, 359.87 109.91, 377.38 138.95 M-0.09 1.61 C45.2 -4.53, 208.02 -58.34, 270.75 -35.75 C333.48 -13.17, 358.66 108.2, 376.29 137.11" stroke="#000000" stroke-width="1" fill="none"></path></g><g transform="translate(230 122.5) rotate(0 188.64696862785144 48.01133587495386)"><path d="M355.04 114.57 C360.86 119.17, 367.72 123.78, 374.74 135.39 M355.78 115.3 C363.91 122.28, 369.9 131.71, 376.16 136.58" stroke="#000000" stroke-width="1" fill="none"></path></g><g transform="translate(230 122.5) rotate(0 188.64696862785144 48.01133587495386)"><path d="M374.04 106.81 C375.23 113.46, 377.42 119.98, 374.74 135.39 M374.78 107.54 C375.85 117.23, 374.86 129.52, 376.16 136.58" stroke="#000000" stroke-width="1" fill="none"></path></g></g></svg>