<svg version="1.1" xmlns="http://www.w3.org/2000/svg" viewBox="0 0 1193.3552687168121 863.550096988678" width="1193.3552687168121" height="863.550096988678">
  <!-- svg-source:excalidraw -->
  
  <defs>
    <style>
      @font-face {
        font-family: "Virgil";
        src: url("https://excalidraw.com/Virgil.woff2");
      }
      @font-face {
        font-family: "Cascadia";
        src: url("https://excalidraw.com/Cascadia.woff2");
      }
    </style>
  </defs>
  <rect x="0" y="0" width="1193.3552687168121" height="863.550096988678" fill="#ffffff"></rect><g stroke-linecap="round" transform="translate(298.85526871681213 10) rotate(0 131.5 43)"><path d="M-0.57 -1.3 C61.03 0.71, 124.21 -1.79, 263.16 0.18 M-0.14 0.14 C76.52 -1.26, 153.95 -0.96, 263.31 -0.42 M261.33 -1.33 C264.7 16.1, 263.72 34.53, 264.5 85.07 M262.68 0.98 C263.49 29.79, 263.53 60, 263.24 85.3 M262.28 86.4 C157.22 87.46, 52.2 86.51, 1.22 86.84 M263.02 85.55 C171.47 84.2, 80.78 84.28, -0.28 86.46 M-1.25 86.85 C-1.49 58.98, -1.61 33.59, -1.52 1.53 M-0.57 85.64 C0.53 58.39, -0.34 29.36, 0.69 0.02" stroke="#000000" stroke-width="1" fill="none"></path></g><g transform="translate(359.85526871681213 30) rotate(0 73 25)"><text x="0" y="18" font-family="Virgil, Segoe UI Emoji" font-size="20px" fill="#000000" text-anchor="start" style="white-space: pre;" direction="ltr">Infrastructure</text><text x="0" y="43" font-family="Virgil, Segoe UI Emoji" font-size="20px" fill="#000000" text-anchor="start" style="white-space: pre;" direction="ltr">Contorller</text></g><g stroke-linecap="round" transform="translate(616.3552687168121 10) rotate(0 131.5 43)"><path d="M-1.19 -1.31 C52.05 -0.13, 106.47 -2.03, 264.53 0.44 M0.52 -0.7 C67.03 -2.42, 134.6 -1.93, 262.61 0.65 M262.33 1.13 C261.79 23.83, 264.22 43.43, 262.28 85.36 M263.09 0.04 C264.01 18.27, 263.31 36, 262.47 85.93 M264.32 86.22 C197.34 86.73, 132.73 85.25, -1.2 85.52 M263.15 86.77 C171.61 87.61, 80.54 87.22, 0.76 86.62 M1.94 85.09 C2.48 65.05, 0.88 44.72, 1.28 -1.87 M-0.16 85.91 C1.07 67.83, 1.14 48.53, 0.18 0.1" stroke="#000000" stroke-width="1" fill="none"></path></g><g transform="translate(677.3552687168121 30) rotate(0 51 25)"><text x="0" y="18" font-family="Virgil, Segoe UI Emoji" font-size="20px" fill="#000000" text-anchor="start" style="white-space: pre;" direction="ltr">Bootstrap</text><text x="0" y="43" font-family="Virgil, Segoe UI Emoji" font-size="20px" fill="#000000" text-anchor="start" style="white-space: pre;" direction="ltr">Controller</text></g><g stroke-linecap="round" transform="translate(920.3552687168121 10) rotate(0 131.5 43)"><path d="M-1.4 1.31 C72.38 1.37, 144.03 1.29, 263.43 1.47 M-0.08 -0.75 C91.88 -1.44, 182.83 -1.66, 263.35 -0.57 M262.97 -1.44 C263.81 27.42, 261.44 51.96, 261.93 87.46 M263.47 -0.69 C262.12 31.84, 261.42 63.53, 262.55 85.91 M263.55 86 C209.22 86.69, 153.43 85.95, -1.34 86.93 M263.61 86.06 C171.65 85.62, 80.39 86.4, 0.42 86.61 M0.09 86.23 C0.8 60.83, 1.07 38.04, 1.66 1.06 M0.86 86.44 C0.06 69, -0.01 50.19, 0.56 -0.46" stroke="#000000" stroke-width="1" fill="none"></path></g><g transform="translate(981.3552687168121 30) rotate(0 66 25)"><text x="0" y="18" font-family="Virgil, Segoe UI Emoji" font-size="20px" fill="#000000" text-anchor="start" style="white-space: pre;" direction="ltr">Control Plane</text><text x="0" y="43" font-family="Virgil, Segoe UI Emoji" font-size="20px" fill="#000000" text-anchor="start" style="white-space: pre;" direction="ltr">Controller</text></g><g stroke-linecap="round" transform="translate(10 12) rotate(0 131.5 43)"><path d="M-0.66 -1.26 C74.61 -1.54, 148.16 -2.16, 263.82 0.55 M0.59 -0.07 C56.14 2.62, 113.26 2.68, 263.73 0.61 M262.41 0.1 C261.6 23.52, 263.36 50.21, 264.77 85.85 M262.71 0.92 C263.91 24.24, 262.43 49.47, 262.88 86.32 M262.78 84.66 C194.03 83.78, 124.03 85.97, 1.09 84.52 M262.64 85.95 C203.32 86.24, 144.34 86.02, -0.43 86.31 M0.23 84.63 C-2.67 60.24, -1.3 38.05, -0.7 -1.8 M-0.98 85.88 C-1.25 58.72, 0.13 30.46, 0.25 -0.37" stroke="#000000" stroke-width="1" fill="none"></path></g><g transform="translate(71 32) rotate(0 47.5 25)"><text x="0" y="18" font-family="Virgil, Segoe UI Emoji" font-size="20px" fill="#000000" text-anchor="start" style="white-space: pre;" direction="ltr">Machine</text><text x="0" y="43" font-family="Virgil, Segoe UI Emoji" font-size="20px" fill="#000000" text-anchor="start" style="white-space: pre;" direction="ltr">Controller</text></g><g transform="translate(147.5 201.4505431652069) rotate(0 42.5 25)"><text x="0" y="18" font-family="Virgil, Segoe UI Emoji" font-size="20px" fill="#000000" text-anchor="start" style="white-space: pre;" direction="ltr">Create</text><text x="0" y="43" font-family="Virgil, Segoe UI Emoji" font-size="20px" fill="#000000" text-anchor="start" style="white-space: pre;" direction="ltr">Machines</text></g><g transform="translate(613.5 312.4505431652069) rotate(0 78.5 37.5)"><text x="0" y="18" font-family="Virgil, Segoe UI Emoji" font-size="20px" fill="#000000" text-anchor="start" style="white-space: pre;" direction="ltr">Fill the cloudinit</text><text x="0" y="43" font-family="Virgil, Segoe UI Emoji" font-size="20px" fill="#000000" text-anchor="start" style="white-space: pre;" direction="ltr">of first node</text><text x="0" y="68" font-family="Virgil, Segoe UI Emoji" font-size="20px" fill="#000000" text-anchor="start" style="white-space: pre;" direction="ltr"> </text></g><g transform="translate(370.5 391.4505431652069) rotate(0 79 25)"><text x="0" y="18" font-family="Virgil, Segoe UI Emoji" font-size="20px" fill="#000000" text-anchor="start" style="white-space: pre;" direction="ltr">Provision VM for</text><text x="0" y="43" font-family="Virgil, Segoe UI Emoji" font-size="20px" fill="#000000" text-anchor="start" style="white-space: pre;" direction="ltr">first node</text></g><g transform="translate(858.5 455.4505431652069) rotate(0 93 25)"><text x="0" y="18" font-family="Virgil, Segoe UI Emoji" font-size="20px" fill="#000000" text-anchor="start" style="white-space: pre;" direction="ltr">Update ProviderID</text><text x="0" y="43" font-family="Virgil, Segoe UI Emoji" font-size="20px" fill="#000000" text-anchor="start" style="white-space: pre;" direction="ltr"></text></g><g transform="translate(144.5 562.4505431652069) rotate(0 80.5 25)"><text x="0" y="18" font-family="Virgil, Segoe UI Emoji" font-size="20px" fill="#000000" text-anchor="start" style="white-space: pre;" direction="ltr">First machine</text><text x="0" y="43" font-family="Virgil, Segoe UI Emoji" font-size="20px" fill="#000000" text-anchor="start" style="white-space: pre;" direction="ltr">in Ready state </text></g><g transform="translate(369.5 126.45054316520691) rotate(0 70 12.5)"><text x="0" y="18" font-family="Virgil, Segoe UI Emoji" font-size="20px" fill="#000000" text-anchor="start" style="white-space: pre;" direction="ltr">Setup network</text></g><g transform="translate(338.5 159.4505431652069) rotate(0 111.5 12.5)"><text x="0" y="18" font-family="Virgil, Segoe UI Emoji" font-size="20px" fill="#000000" text-anchor="start" style="white-space: pre;" direction="ltr">Setup cluster EP (LB)</text></g><g transform="translate(616.5 252.4505431652069) rotate(0 83 25)"><text x="0" y="18" font-family="Virgil, Segoe UI Emoji" font-size="20px" fill="#000000" text-anchor="start" style="white-space: pre;" direction="ltr">Genetare</text><text x="0" y="43" font-family="Virgil, Segoe UI Emoji" font-size="20px" fill="#000000" text-anchor="start" style="white-space: pre;" direction="ltr">CA &amp; Join Token</text></g><g transform="translate(938.5 475.4505431652069) rotate(0 50 25)"><text x="0" y="18" font-family="Virgil, Segoe UI Emoji" font-size="20px" fill="#000000" text-anchor="start" style="white-space: pre;" direction="ltr">Generate</text><text x="0" y="43" font-family="Virgil, Segoe UI Emoji" font-size="20px" fill="#000000" text-anchor="start" style="white-space: pre;" direction="ltr">Kubeconfig</text></g><g stroke-linecap="round" transform="translate(130.5 96.45054316520691) rotate(0 2 361.5)"><path d="M0.03 -0.29 C1.02 -0.19, 1.9 -0.17, 4.09 -0.16 M4.66 0.31 C5.34 241.97, 5.95 483.16, 4.47 722.99 M3.92 723.2 C2.87 722.62, 2.12 722.83, 0.31 723.3 M-0.2 723.56 C-1.37 457.38, -2.24 191.15, -0.68 0.6" stroke="#000000" stroke-width="1.5" fill="none" stroke-dasharray="1.5 7"></path></g><g stroke-linecap="round" transform="translate(430 103.95054316520691) rotate(0 0.5 353.5)"><path d="M-0.05 0.03 C0.42 0.07, 0.67 0.05, 0.99 0 M0.87 0.72 C3.16 254.98, 2 510.24, 1.38 707.42 M0.98 707.05 C0.72 707.07, 0.37 707.09, 0.05 707.06 M0.38 707.07 C-2.1 556.71, -1.5 405.03, -0.39 -0.64" stroke="#000000" stroke-width="1.5" fill="none" stroke-dasharray="1.5 7"></path></g><g stroke-linecap="round" transform="translate(748 101.95054316520691) rotate(0 0.5 353.5)"><path d="M0.01 -0.04 C0.25 -0.09, 0.61 -0.1, 1.09 0 M0.7 -0.41 C2.65 220.95, 2.99 441.06, 1.19 706.61 M0.93 707.03 C0.88 707.06, 0.64 706.94, 0.02 706.97 M0.45 706.97 C1.94 439.1, 1.69 171.78, -0.18 -0.45" stroke="#000000" stroke-width="1.5" fill="none" stroke-dasharray="1.5 7"></path></g><g stroke-linecap="round" transform="translate(1050 105.95054316520691) rotate(0 0.5 353.5)"><path d="M-0.08 0.04 C0.32 0.03, 0.79 0.09, 0.97 -0.08 M0.96 0.61 C3.34 164.15, 3.05 327.87, 0.84 706.37 M0.99 706.9 C0.7 707.03, 0.53 706.94, 0.05 706.95 M0.29 706.91 C0.14 465.54, -0.63 225.74, 0.24 -0.15" stroke="#000000" stroke-width="1.5" fill="none" stroke-dasharray="1.5 7"></path></g><g transform="translate(568.5 617.6417419910431) rotate(0 117.5 25)"><text x="0" y="18" font-family="Virgil, Segoe UI Emoji" font-size="20px" fill="#000000" text-anchor="start" style="white-space: pre;" direction="ltr">Use kubeconfig to</text><text x="0" y="43" font-family="Virgil, Segoe UI Emoji" font-size="20px" fill="#000000" text-anchor="start" style="white-space: pre;" direction="ltr">find control plane nodes</text></g><g transform="translate(548.5 669.6417419910431) rotate(0 99.5 12.5)"><text x="0" y="18" font-family="Virgil, Segoe UI Emoji" font-size="20px" fill="#000000" text-anchor="start" style="white-space: pre;" direction="ltr">Fill cloudinit of node</text></g><g transform="translate(375.5 711.0482840538025) rotate(0 60 12.5)"><text x="0" y="18" font-family="Virgil, Segoe UI Emoji" font-size="20px" fill="#000000" text-anchor="start" style="white-space: pre;" direction="ltr">Provision VM</text></g><g transform="translate(867.5 760.0482840538025) rotate(0 93 25)"><text x="0" y="18" font-family="Virgil, Segoe UI Emoji" font-size="20px" fill="#000000" text-anchor="start" style="white-space: pre;" direction="ltr">Update ProviderID</text><text x="0" y="43" font-family="Virgil, Segoe UI Emoji" font-size="20px" fill="#000000" text-anchor="start" style="white-space: pre;" direction="ltr"></text></g><g transform="translate(135.5 787.1882078647614) rotate(0 103.5 12.5)"><text x="0" y="18" font-family="Virgil, Segoe UI Emoji" font-size="20px" fill="#000000" text-anchor="start" style="white-space: pre;" direction="ltr">Node in Ready state</text></g><g stroke-linecap="round"><g transform="translate(150.5 256.852118110739) rotate(0 293.46286419294773 -0.8205003495807262)"><path d="M-0.52 0.52 C97.36 0.34, 489.35 -1.95, 587.44 -2.16 M1.41 -0.25 C99.1 -0.24, 488.77 -1.41, 586.47 -1.25" stroke="#000000" stroke-width="1" fill="none"></path></g><g transform="translate(150.5 256.852118110739) rotate(0 293.46286419294773 -0.8205003495807262)"><path d="M559.16 8.94 C565.33 6.84, 576.63 3.71, 586.29 -2.41 M558.84 10.02 C569.19 4.48, 578.97 1.24, 585.72 -0.65" stroke="#000000" stroke-width="1" fill="none"></path></g><g transform="translate(150.5 256.852118110739) rotate(0 293.46286419294773 -0.8205003495807262)"><path d="M559.14 -11.58 C565.13 -7.18, 576.44 -3.8, 586.29 -2.41 M558.82 -10.5 C569.35 -8.74, 579.13 -4.68, 585.72 -0.65" stroke="#000000" stroke-width="1" fill="none"></path></g></g><g stroke-linecap="round"><g transform="translate(431.5 199.8703269958496) rotate(0 158.55611967044882 -0.009120298605409971)"><path d="M0.32 -0.14 C53.39 -0.3, 265.2 -0.25, 318.09 -0.19 M-0.98 -1.26 C51.98 -1.29, 264.24 0.77, 317.19 1.24" stroke="#000000" stroke-width="1" fill="none"></path></g><g transform="translate(431.5 199.8703269958496) rotate(0 158.55611967044882 -0.009120298605409971)"><path d="M288.67 11.39 C296.19 7.9, 304.47 4.01, 317.32 2.21 M288.35 11.22 C298.22 7.26, 306.41 5.58, 317.82 0.34" stroke="#000000" stroke-width="1" fill="none"></path></g><g transform="translate(431.5 199.8703269958496) rotate(0 158.55611967044882 -0.009120298605409971)"><path d="M288.85 -9.13 C296.45 -7.06, 304.69 -5.39, 317.32 2.21 M288.54 -9.3 C298.37 -7.11, 306.51 -2.64, 317.82 0.34" stroke="#000000" stroke-width="1" fill="none"></path></g></g><g stroke-linecap="round"><g transform="translate(746.5 370.8703269958496) rotate(0 -155.68594105806204 1.2191862883790918)"><path d="M-0.35 1.02 C-52.18 1.13, -260.16 0.87, -312.06 0.94 M1.67 0.51 C-50.24 0.7, -260.7 1.6, -313.05 1.93" stroke="#000000" stroke-width="1" fill="none"></path></g><g transform="translate(746.5 370.8703269958496) rotate(0 -155.68594105806204 1.2191862883790918)"><path d="M-283.21 -8.58 C-292.64 -5.93, -297.78 -3.83, -311.68 0.58 M-285.33 -8.37 C-292.68 -4.7, -300.93 -2.38, -312.14 2.44" stroke="#000000" stroke-width="1" fill="none"></path></g><g transform="translate(746.5 370.8703269958496) rotate(0 -155.68594105806204 1.2191862883790918)"><path d="M-283.1 11.94 C-292.61 10.21, -297.77 7.94, -311.68 0.58 M-285.22 12.15 C-292.77 9.7, -301.05 5.89, -312.14 2.44" stroke="#000000" stroke-width="1" fill="none"></path></g></g><g stroke-linecap="round"><g transform="translate(431.0662206244283 443.48761599324644) rotate(0 306.5785966711119 -3.060088758356869)"><path d="M0.67 0.62 C103.06 -0.4, 511.65 -5.61, 613.59 -6.74 M-0.43 -0.1 C101.96 -0.96, 511.26 -4.95, 613.25 -5.79" stroke="#000000" stroke-width="1" fill="none"></path></g><g transform="translate(431.0662206244283 443.48761599324644) rotate(0 306.5785966711119 -3.060088758356869)"><path d="M586.18 6.66 C590.09 1.9, 597.8 0.86, 614.02 -7.33 M585.62 4.59 C591.87 1.5, 599.41 -0.32, 613.15 -6.24" stroke="#000000" stroke-width="1" fill="none"></path></g><g transform="translate(431.0662206244283 443.48761599324644) rotate(0 306.5785966711119 -3.060088758356869)"><path d="M586 -13.86 C589.84 -13.7, 597.59 -9.81, 614.02 -7.33 M585.44 -15.93 C591.81 -13.68, 599.4 -10.18, 613.15 -6.24" stroke="#000000" stroke-width="1" fill="none"></path></g></g><g stroke-linecap="round"><g transform="translate(1034 543.0402753644005) rotate(0 -442.47779721510597 6.046770778807797)"><path d="M0.34 0.53 C-146.99 2.22, -736.8 9.33, -884.06 10.98 M-0.93 -0.23 C-148.46 1.55, -738.16 10.41, -885.3 12.33" stroke="#000000" stroke-width="1" fill="none"></path></g><g transform="translate(1034 543.0402753644005) rotate(0 -442.47779721510597 6.046770778807797)"><path d="M-856.37 0.74 C-866.03 5.41, -875.18 8.34, -885.94 14.19 M-857.02 2.14 C-862.73 3.71, -869.68 5.57, -886.2 11.79" stroke="#000000" stroke-width="1" fill="none"></path></g><g transform="translate(1034 543.0402753644005) rotate(0 -442.47779721510597 6.046770778807797)"><path d="M-856.08 21.26 C-865.97 19.91, -875.21 16.82, -885.94 14.19 M-856.73 22.66 C-862.53 19.98, -869.55 17.59, -886.2 11.79" stroke="#000000" stroke-width="1" fill="none"></path></g></g><g stroke-linecap="round"><g transform="translate(139.5 612.9397053467295) rotate(0 303.62633621794686 -4.660703765201106)"><path d="M0.38 0.54 C101.53 -1.27, 504.98 -8.08, 605.97 -9.86 M-0.88 -0.22 C100.72 -1.91, 506.51 -6.84, 608.13 -8.3" stroke="#000000" stroke-width="1" fill="none"></path></g><g transform="translate(139.5 612.9397053467295) rotate(0 303.62633621794686 -4.660703765201106)"><path d="M580.97 0.59 C586.26 -1.3, 591.96 -3.42, 607.33 -10.23 M579.22 2.84 C588.78 -0.01, 596.94 -4.62, 607.68 -7.66" stroke="#000000" stroke-width="1" fill="none"></path></g><g transform="translate(139.5 612.9397053467295) rotate(0 303.62633621794686 -4.660703765201106)"><path d="M580.7 -19.93 C586.22 -17.28, 591.97 -14.87, 607.33 -10.23 M578.95 -17.68 C588.66 -14.3, 596.9 -12.68, 607.68 -7.66" stroke="#000000" stroke-width="1" fill="none"></path></g></g><g stroke-linecap="round"><g transform="translate(741.69624350053 706.0072641372681) rotate(0 -154.18155658547414 1.0246110319811805)"><path d="M-0.41 0.68 C-52.07 0.87, -257.95 2.13, -309.46 2.1 M1.58 -0.01 C-50.21 -0.21, -258.05 0.3, -309.94 0.56" stroke="#000000" stroke-width="1" fill="none"></path></g><g transform="translate(741.69624350053 706.0072641372681) rotate(0 -154.18155658547414 1.0246110319811805)"><path d="M-280.65 -8.31 C-289.49 -4.85, -301.79 -2.83, -309.98 2.36 M-281.25 -9.9 C-291.7 -5.24, -304.33 -1.64, -309.14 1.43" stroke="#000000" stroke-width="1" fill="none"></path></g><g transform="translate(741.69624350053 706.0072641372681) rotate(0 -154.18155658547414 1.0246110319811805)"><path d="M-280.58 12.21 C-289.61 8.65, -301.93 3.66, -309.98 2.36 M-281.18 10.62 C-291.64 7.38, -304.3 3.1, -309.14 1.43" stroke="#000000" stroke-width="1" fill="none"></path></g></g><g stroke-linecap="round"><g transform="translate(432.5 743.0072641372681) rotate(0 308.9823357355408 1.662368266107535)"><path d="M1.11 0.23 C103.56 1.05, 512.97 3.61, 615.35 4.02 M0.24 -0.69 C103.03 -0.11, 515.38 1.67, 617.73 2.43" stroke="#000000" stroke-width="1" fill="none"></path></g><g transform="translate(432.5 743.0072641372681) rotate(0 308.9823357355408 1.662368266107535)"><path d="M589.86 11.46 C601.25 7.71, 609.03 6.61, 616.75 0.56 M589.61 12.03 C597.5 9.25, 603.38 7.71, 616.96 1.61" stroke="#000000" stroke-width="1" fill="none"></path></g><g transform="translate(432.5 743.0072641372681) rotate(0 308.9823357355408 1.662368266107535)"><path d="M589.98 -9.07 C601.17 -5.55, 608.91 0.61, 616.75 0.56 M589.72 -8.49 C597.49 -6.15, 603.34 -2.58, 616.96 1.61" stroke="#000000" stroke-width="1" fill="none"></path></g></g><g stroke-linecap="round"><g transform="translate(1043.5 786.0072641372681) rotate(0 -456.8973752507941 -1.3589916136581337)"><path d="M0.78 -0.79 C-151.79 -1.18, -762.28 -1.97, -914.57 -2.37 M-0.27 1.41 C-152.53 0.68, -760.1 -3.57, -912.27 -4.12" stroke="#000000" stroke-width="1" fill="none"></path></g><g transform="translate(1043.5 786.0072641372681) rotate(0 -456.8973752507941 -1.3589916136581337)"><path d="M-885.35 -15.54 C-893.29 -8.98, -905.06 -6.81, -913.13 -4.98 M-884.67 -14.82 C-893.67 -11.01, -904.08 -7.04, -912.03 -3.38" stroke="#000000" stroke-width="1" fill="none"></path></g><g transform="translate(1043.5 786.0072641372681) rotate(0 -456.8973752507941 -1.3589916136581337)"><path d="M-885.46 4.98 C-893.35 3.97, -905.08 -1.42, -913.13 -4.98 M-884.78 5.7 C-893.83 2.36, -904.2 -0.83, -912.03 -3.38" stroke="#000000" stroke-width="1" fill="none"></path></g></g><g stroke-linecap="round" transform="translate(72.5 616.550096988678) rotate(0 515 118.5)"><path d="M0.01 0.49 C363.39 0.73, 728.52 1.24, 1030.79 0.6 M-0.15 -0.19 C352.42 -0.54, 704.38 -0.97, 1029.71 -0.14 M1031.19 -0.85 C1028.63 64.21, 1029.59 130.89, 1030.69 237.2 M1030.57 0.14 C1031.1 81.9, 1030.9 164.08, 1030.43 236.36 M1030.34 236.25 C715.5 234.68, 401.48 234.13, 0.72 237.17 M1029.8 237.34 C800.18 233.22, 570.01 233.52, -0.12 236.81 M-0.13 236.6 C-1.12 163.85, -1.5 93.02, 1.09 0.41 M0.22 237.57 C0.19 183.95, -0.82 129.1, -0.72 -0.74" stroke="#000000" stroke-width="1" fill="none"></path></g><g transform="translate(3.5 699.550096988678) rotate(271.28732894152506 103.5 25)"><text x="0" y="18" font-family="Virgil, Segoe UI Emoji" font-size="20px" fill="#000000" text-anchor="start" style="white-space: pre;" direction="ltr">Repeat for all nodes</text><text x="0" y="43" font-family="Virgil, Segoe UI Emoji" font-size="20px" fill="#000000" text-anchor="start" style="white-space: pre;" direction="ltr"></text></g></svg>